<svg width="541" height="97" viewBox="0 0 541 97" fill="none" xmlns="http://www.w3.org/2000/svg">
<g filter="url(#filter0_d)">
<path d="M46.2578 66.3984C53.6406 66.3984 58.5859 59.1797 58.5859 50.6016C58.5859 44.2266 55.1406 40.4062 49.7266 40.4062C46.5156 40.4062 43.5859 42.0234 42.1094 44.5312H41.9688L44.6172 32.1797H37.9609L30.7422 66H37.2109L38.2188 61.1953H38.3828C39.2734 64.2656 42.4375 66.3984 46.2578 66.3984ZM44.9453 60.75C41.9453 60.75 39.9297 58.5234 39.9297 55.2891C39.9297 50.2031 42.9297 45.8906 46.9375 45.8906C49.9609 45.8906 51.7422 48.0703 51.7422 51.5156C51.7422 56.6016 48.9297 60.75 44.9453 60.75ZM60.8584 56.0391C60.999 62.6719 66.6006 66.5625 74.6865 66.5625C83.1474 66.5625 88.2803 61.8047 88.2803 55.5C88.2803 50.8828 85.5381 48.2344 79.6787 46.4766L76.7021 45.5625C73.3037 44.5547 71.9209 43.3125 71.9209 41.3906C71.9209 39.2344 73.9834 37.3594 77.7099 37.3594C81.4834 37.3594 83.8506 39.2109 83.9678 41.9062H90.6006C90.5771 35.4844 85.4209 31.6172 77.6162 31.6172C70.0693 31.6172 64.7021 35.8594 64.7021 42.2344C64.7021 46.8516 67.5615 49.7344 73.1865 51.4688L76.0928 52.3828C79.7724 53.5078 80.9912 54.6094 80.9912 56.6484C80.9912 59.25 78.4131 60.7969 74.8037 60.7969C70.8428 60.7969 68.0537 58.8281 67.6787 56.0391H60.8584ZM98.2168 66L105.412 32.1797H98.2871L91.0918 66H98.2168ZM111.599 32.1797L104.427 66H119.427C130.161 66 137.45 57.5156 137.45 45.4922C137.45 37.1016 131.966 32.1797 123.552 32.1797H111.599ZM117.528 38.1797H122.005C127.302 38.1797 130.161 41.2031 130.161 46.4062C130.161 54.5859 125.31 59.9766 118.536 59.9766H112.817L117.528 38.1797ZM162.527 59.9531H147.223L149.051 51.7266H163.465L164.613 46.125H150.199L151.934 38.2266H167.215L168.48 32.1797H146.051L138.855 66H161.285L162.527 59.9531ZM177.666 66H184.814L187.439 53.7422H193.439L197.26 66H204.666L200.424 52.9688C205.861 51.3281 208.955 46.7344 208.955 41.7422C208.955 36.1406 205.135 32.1797 198.385 32.1797H184.861L177.666 66ZM190.814 37.8984H196.767C199.908 37.8984 201.76 39.5391 201.76 42.3984C201.76 45.8672 198.971 48.3047 194.822 48.3047H188.541L190.814 37.8984ZM216.712 66.3984C219.829 66.3984 222.454 65.0391 223.907 62.9766H224.048L223.391 66H229.86L233.305 49.8047C233.399 49.2656 233.493 48.4453 233.493 47.7188C233.493 43.2891 229.438 40.2422 223.415 40.2422C217.274 40.2422 212.868 43.4766 211.977 48.4219H218.305C218.774 46.6406 220.391 45.5156 222.923 45.5156C225.43 45.5156 226.907 46.6406 226.907 48.3984C226.907 48.6797 226.907 48.9375 226.813 49.3359L226.509 50.8594L220.04 51.0938C213.243 51.3281 209.118 54.3984 209.118 59.4844C209.118 63.4922 212.47 66.3984 216.712 66.3984ZM219.407 61.3828C217.18 61.3828 215.657 60.2578 215.657 58.5469C215.657 56.625 217.415 55.3828 220.298 55.2891L225.618 55.0781L225.149 57.2109C224.587 59.6484 222.173 61.3828 219.407 61.3828ZM245.164 66.3984C248.492 66.3984 251.328 64.8281 253.015 62.25H253.156L252.359 66H258.945L266.14 32.1797H259.461L256.601 45.3281H256.461C255.64 42.4219 252.711 40.4062 248.89 40.4062C241.742 40.4062 236.328 47.1797 236.328 56.2734C236.328 62.4609 239.726 66.3984 245.164 66.3984ZM247.93 60.8906C245 60.8906 243.172 58.7109 243.172 55.3125C243.172 49.9922 246.172 46.0312 250.039 46.0312C253.039 46.0312 254.984 48.2578 254.984 51.4922C254.984 56.7188 251.89 60.8906 247.93 60.8906ZM275.28 37.4766C277.272 37.4766 278.843 35.8359 278.843 33.8672C278.843 31.875 277.272 30.2578 275.28 30.2578C273.288 30.2578 271.718 31.875 271.718 33.8672C271.718 35.8359 273.288 37.4766 275.28 37.4766ZM265.085 66H271.788L277.132 40.8047H270.428L265.085 66ZM293.279 40.2422C285.193 40.2422 279.287 46.6406 279.287 55.2656C279.287 62.0391 283.81 66.5391 290.654 66.5391C298.74 66.5391 304.646 60.1406 304.646 51.5156C304.646 44.7656 300.123 40.2422 293.279 40.2422ZM290.865 61.0312C287.959 61.0312 286.06 58.6641 286.06 55.125C286.06 49.7812 289.013 45.7734 293.045 45.7734C295.951 45.7734 297.826 48.1172 297.826 51.6797C297.826 56.9766 294.873 61.0312 290.865 61.0312ZM324.496 66L329.371 43.4297H329.511L340.363 66H346.269L353.465 32.1797H346.551L341.676 54.75H341.535L330.683 32.1797H324.777L317.582 66H324.496ZM364.737 66.5625C370.807 66.5625 375.401 63 376.69 57.9844H370.385C369.612 60 367.667 61.3594 364.995 61.3594C361.807 61.3594 359.815 59.0625 359.815 55.7344C359.815 55.4766 359.839 55.2188 359.862 54.9375H377.44C377.698 53.7422 377.792 52.2422 377.792 51.0234C377.792 44.4375 373.479 40.2422 366.987 40.2422C359.042 40.2422 353.604 46.7344 353.604 55.2188C353.604 62.1094 357.729 66.5625 364.737 66.5625ZM360.542 50.6953C361.339 47.625 363.635 45.375 366.753 45.375C369.917 45.375 371.51 47.5078 371.51 49.9922C371.51 50.2266 371.487 50.5312 371.464 50.6953H360.542ZM389.627 66.2812C390.775 66.2812 391.994 66.1641 392.767 66L393.822 60.9609C393.423 61.0547 393.002 61.0781 392.134 61.0781C390.119 61.0781 389.064 60.4453 389.064 58.875C389.064 58.4531 389.134 57.8438 389.252 57.3281L391.619 46.4766H396.752L397.83 41.2266H392.673L393.986 35.1094H387.283L386.017 41.2266H382.267L381.166 46.4766H384.916L382.361 58.3359C382.15 59.3203 382.103 60.2109 382.103 60.8438C382.103 64.4766 385.056 66.2812 389.627 66.2812ZM436.876 40.8047H430.032L422.274 59.2969H422.133L421.618 40.8047H415.079L406.829 59.2969H406.712L406.641 40.8047H400.149L401.485 66H408.797L416.907 48.2812H417.047L417.797 66H424.993L436.876 40.8047ZM449.789 40.2422C441.703 40.2422 435.797 46.6406 435.797 55.2656C435.797 62.0391 440.32 66.5391 447.164 66.5391C455.25 66.5391 461.156 60.1406 461.156 51.5156C461.156 44.7656 456.632 40.2422 449.789 40.2422ZM447.375 61.0312C444.468 61.0312 442.57 58.6641 442.57 55.125C442.57 49.7812 445.523 45.7734 449.554 45.7734C452.461 45.7734 454.336 48.1172 454.336 51.6797C454.336 56.9766 451.382 61.0312 447.375 61.0312ZM462.491 66H469.194L472.1 52.3594C472.967 48.4688 475.124 46.4531 478.71 46.4531C480.069 46.4531 481.311 46.8047 482.178 47.2031L483.491 41.0625C482.717 40.6875 481.639 40.4297 480.303 40.4297C477.374 40.4297 475.1 42 473.764 44.3203H473.624L474.327 40.8047H467.858L462.491 66ZM488.365 66L490.146 57.7969L492.935 55.4062L498.138 66H505.427L498.302 51.5859L510.138 40.8047H502.216L491.787 50.4375H491.646L495.56 32.1797H488.88L481.662 66H488.365Z" fill="white"/>
<path d="M46.2578 66.3984C53.6406 66.3984 58.5859 59.1797 58.5859 50.6016C58.5859 44.2266 55.1406 40.4062 49.7266 40.4062C46.5156 40.4062 43.5859 42.0234 42.1094 44.5312H41.9688L44.6172 32.1797H37.9609L30.7422 66H37.2109L38.2188 61.1953H38.3828C39.2734 64.2656 42.4375 66.3984 46.2578 66.3984ZM44.9453 60.75C41.9453 60.75 39.9297 58.5234 39.9297 55.2891C39.9297 50.2031 42.9297 45.8906 46.9375 45.8906C49.9609 45.8906 51.7422 48.0703 51.7422 51.5156C51.7422 56.6016 48.9297 60.75 44.9453 60.75ZM60.8584 56.0391C60.999 62.6719 66.6006 66.5625 74.6865 66.5625C83.1474 66.5625 88.2803 61.8047 88.2803 55.5C88.2803 50.8828 85.5381 48.2344 79.6787 46.4766L76.7021 45.5625C73.3037 44.5547 71.9209 43.3125 71.9209 41.3906C71.9209 39.2344 73.9834 37.3594 77.7099 37.3594C81.4834 37.3594 83.8506 39.2109 83.9678 41.9062H90.6006C90.5771 35.4844 85.4209 31.6172 77.6162 31.6172C70.0693 31.6172 64.7021 35.8594 64.7021 42.2344C64.7021 46.8516 67.5615 49.7344 73.1865 51.4688L76.0928 52.3828C79.7724 53.5078 80.9912 54.6094 80.9912 56.6484C80.9912 59.25 78.4131 60.7969 74.8037 60.7969C70.8428 60.7969 68.0537 58.8281 67.6787 56.0391H60.8584ZM98.2168 66L105.412 32.1797H98.2871L91.0918 66H98.2168ZM111.599 32.1797L104.427 66H119.427C130.161 66 137.45 57.5156 137.45 45.4922C137.45 37.1016 131.966 32.1797 123.552 32.1797H111.599ZM117.528 38.1797H122.005C127.302 38.1797 130.161 41.2031 130.161 46.4062C130.161 54.5859 125.31 59.9766 118.536 59.9766H112.817L117.528 38.1797ZM162.527 59.9531H147.223L149.051 51.7266H163.465L164.613 46.125H150.199L151.934 38.2266H167.215L168.48 32.1797H146.051L138.855 66H161.285L162.527 59.9531ZM177.666 66H184.814L187.439 53.7422H193.439L197.26 66H204.666L200.424 52.9688C205.861 51.3281 208.955 46.7344 208.955 41.7422C208.955 36.1406 205.135 32.1797 198.385 32.1797H184.861L177.666 66ZM190.814 37.8984H196.767C199.908 37.8984 201.76 39.5391 201.76 42.3984C201.76 45.8672 198.971 48.3047 194.822 48.3047H188.541L190.814 37.8984ZM216.712 66.3984C219.829 66.3984 222.454 65.0391 223.907 62.9766H224.048L223.391 66H229.86L233.305 49.8047C233.399 49.2656 233.493 48.4453 233.493 47.7188C233.493 43.2891 229.438 40.2422 223.415 40.2422C217.274 40.2422 212.868 43.4766 211.977 48.4219H218.305C218.774 46.6406 220.391 45.5156 222.923 45.5156C225.43 45.5156 226.907 46.6406 226.907 48.3984C226.907 48.6797 226.907 48.9375 226.813 49.3359L226.509 50.8594L220.04 51.0938C213.243 51.3281 209.118 54.3984 209.118 59.4844C209.118 63.4922 212.47 66.3984 216.712 66.3984ZM219.407 61.3828C217.18 61.3828 215.657 60.2578 215.657 58.5469C215.657 56.625 217.415 55.3828 220.298 55.2891L225.618 55.0781L225.149 57.2109C224.587 59.6484 222.173 61.3828 219.407 61.3828ZM245.164 66.3984C248.492 66.3984 251.328 64.8281 253.015 62.25H253.156L252.359 66H258.945L266.14 32.1797H259.461L256.601 45.3281H256.461C255.64 42.4219 252.711 40.4062 248.89 40.4062C241.742 40.4062 236.328 47.1797 236.328 56.2734C236.328 62.4609 239.726 66.3984 245.164 66.3984ZM247.93 60.8906C245 60.8906 243.172 58.7109 243.172 55.3125C243.172 49.9922 246.172 46.0312 250.039 46.0312C253.039 46.0312 254.984 48.2578 254.984 51.4922C254.984 56.7188 251.89 60.8906 247.93 60.8906ZM275.28 37.4766C277.272 37.4766 278.843 35.8359 278.843 33.8672C278.843 31.875 277.272 30.2578 275.28 30.2578C273.288 30.2578 271.718 31.875 271.718 33.8672C271.718 35.8359 273.288 37.4766 275.28 37.4766ZM265.085 66H271.788L277.132 40.8047H270.428L265.085 66ZM293.279 40.2422C285.193 40.2422 279.287 46.6406 279.287 55.2656C279.287 62.0391 283.81 66.5391 290.654 66.5391C298.74 66.5391 304.646 60.1406 304.646 51.5156C304.646 44.7656 300.123 40.2422 293.279 40.2422ZM290.865 61.0312C287.959 61.0312 286.06 58.6641 286.06 55.125C286.06 49.7812 289.013 45.7734 293.045 45.7734C295.951 45.7734 297.826 48.1172 297.826 51.6797C297.826 56.9766 294.873 61.0312 290.865 61.0312ZM324.496 66L329.371 43.4297H329.511L340.363 66H346.269L353.465 32.1797H346.551L341.676 54.75H341.535L330.683 32.1797H324.777L317.582 66H324.496ZM364.737 66.5625C370.807 66.5625 375.401 63 376.69 57.9844H370.385C369.612 60 367.667 61.3594 364.995 61.3594C361.807 61.3594 359.815 59.0625 359.815 55.7344C359.815 55.4766 359.839 55.2188 359.862 54.9375H377.44C377.698 53.7422 377.792 52.2422 377.792 51.0234C377.792 44.4375 373.479 40.2422 366.987 40.2422C359.042 40.2422 353.604 46.7344 353.604 55.2188C353.604 62.1094 357.729 66.5625 364.737 66.5625ZM360.542 50.6953C361.339 47.625 363.635 45.375 366.753 45.375C369.917 45.375 371.51 47.5078 371.51 49.9922C371.51 50.2266 371.487 50.5312 371.464 50.6953H360.542ZM389.627 66.2812C390.775 66.2812 391.994 66.1641 392.767 66L393.822 60.9609C393.423 61.0547 393.002 61.0781 392.134 61.0781C390.119 61.0781 389.064 60.4453 389.064 58.875C389.064 58.4531 389.134 57.8438 389.252 57.3281L391.619 46.4766H396.752L397.83 41.2266H392.673L393.986 35.1094H387.283L386.017 41.2266H382.267L381.166 46.4766H384.916L382.361 58.3359C382.15 59.3203 382.103 60.2109 382.103 60.8438C382.103 64.4766 385.056 66.2812 389.627 66.2812ZM436.876 40.8047H430.032L422.274 59.2969H422.133L421.618 40.8047H415.079L406.829 59.2969H406.712L406.641 40.8047H400.149L401.485 66H408.797L416.907 48.2812H417.047L417.797 66H424.993L436.876 40.8047ZM449.789 40.2422C441.703 40.2422 435.797 46.6406 435.797 55.2656C435.797 62.0391 440.32 66.5391 447.164 66.5391C455.25 66.5391 461.156 60.1406 461.156 51.5156C461.156 44.7656 456.632 40.2422 449.789 40.2422ZM447.375 61.0312C444.468 61.0312 442.57 58.6641 442.57 55.125C442.57 49.7812 445.523 45.7734 449.554 45.7734C452.461 45.7734 454.336 48.1172 454.336 51.6797C454.336 56.9766 451.382 61.0312 447.375 61.0312ZM462.491 66H469.194L472.1 52.3594C472.967 48.4688 475.124 46.4531 478.71 46.4531C480.069 46.4531 481.311 46.8047 482.178 47.2031L483.491 41.0625C482.717 40.6875 481.639 40.4297 480.303 40.4297C477.374 40.4297 475.1 42 473.764 44.3203H473.624L474.327 40.8047H467.858L462.491 66ZM488.365 66L490.146 57.7969L492.935 55.4062L498.138 66H505.427L498.302 51.5859L510.138 40.8047H502.216L491.787 50.4375H491.646L495.56 32.1797H488.88L481.662 66H488.365Z" fill="#3862F9" fill-opacity="0.6"/>
</g>
<defs>
<filter id="filter0_d" x="0.742188" y="0.257812" width="539.396" height="96.3047" filterUnits="userSpaceOnUse" color-interpolation-filters="sRGB">
<feFlood flood-opacity="0" result="BackgroundImageFix"/>
<feColorMatrix in="SourceAlpha" type="matrix" values="0 0 0 0 0 0 0 0 0 0 0 0 0 0 0 0 0 0 127 0"/>
<feOffset/>
<feGaussianBlur stdDeviation="15"/>
<feColorMatrix type="matrix" values="0 0 0 0 0.533333 0 0 0 0 0.631373 0 0 0 0 0.984314 0 0 0 0.9 0"/>
<feBlend mode="normal" in2="BackgroundImageFix" result="effect1_dropShadow"/>
<feBlend mode="normal" in="SourceGraphic" in2="effect1_dropShadow" result="shape"/>
</filter>
</defs>
</svg>
