<svg width="24" height="24" viewBox="0 0 24 24" fill="none" xmlns="http://www.w3.org/2000/svg">
<path d="M19.4486 8.27588H15.8544C15.4197 8.27575 14.9892 8.36135 14.5876 8.52778C14.186 8.69421 13.8212 8.93821 13.514 9.24581L8.00478 14.7551C7.38363 15.3756 6.54154 15.7241 5.66354 15.7242H2.06934" stroke="current" stroke-width="2" stroke-miterlimit="10"/>
<path d="M2.06934 8.27588H5.66354C6.54161 8.27588 7.38327 8.62429 8.00396 9.24581L13.5132 14.7551C14.1339 15.3758 14.9757 15.7247 15.8536 15.725H19.4486" stroke="current" stroke-width="2" stroke-miterlimit="10"/>
<path d="M17.793 10.2719V6.27961C17.793 5.97505 18.1248 5.78636 18.3863 5.94195L21.7397 7.93809C21.7982 7.97284 21.8467 8.0222 21.8803 8.08132C21.9139 8.14045 21.9316 8.2073 21.9316 8.27533C21.9316 8.34336 21.9139 8.41022 21.8803 8.46934C21.8467 8.52847 21.7982 8.57782 21.7397 8.61257L18.3863 10.6087C18.3268 10.6443 18.2589 10.6634 18.1896 10.6642C18.1202 10.6649 18.0519 10.6473 17.9916 10.6131C17.9313 10.5788 17.8811 10.5292 17.8462 10.4693C17.8113 10.4093 17.793 10.3412 17.793 10.2719ZM17.793 17.7202V13.7287C17.793 13.4242 18.1248 13.2355 18.3863 13.3911L21.7397 15.3872C21.7982 15.4219 21.8467 15.4713 21.8803 15.5304C21.9139 15.5896 21.9316 15.6564 21.9316 15.7244C21.9316 15.7925 21.9139 15.8593 21.8803 15.9184C21.8467 15.9776 21.7982 16.0269 21.7397 16.0617L18.3863 18.0578C18.3267 18.0931 18.2588 18.112 18.1895 18.1126C18.1201 18.1132 18.0519 18.0955 17.9917 18.0612C17.9314 18.0269 17.8813 17.9773 17.8464 17.9174C17.8115 17.8575 17.7931 17.7895 17.793 17.7202V17.7202Z" fill="#current"/>
</svg>
